<?xml version="1.0" encoding="utf-8"?>
<!-- Generator: Adobe Illustrator 16.0.0, SVG Export Plug-In . SVG Version: 6.00 Build 0)  -->
<!DOCTYPE svg PUBLIC "-//W3C//DTD SVG 1.0//EN" "http://www.w3.org/TR/2001/REC-SVG-20010904/DTD/svg10.dtd">
<svg version="1.0" id="Calque_1" xmlns="http://www.w3.org/2000/svg" xmlns:xlink="http://www.w3.org/1999/xlink" x="0px" y="0px"
	 width="72px" height="72px" viewBox="0 0 72 72" enable-background="new 0 0 72 72" xml:space="preserve">
<g>
	<path fill="#FFFFFF" d="M54.667,10.5H42.612v7.177h7.27c3.557,0,6.441,2.884,6.441,6.441v7.269H63.5V19.334
		C63.5,14.456,59.545,10.5,54.667,10.5z"/>
	<path fill="#FFFFFF" d="M17.677,24.119c0-3.557,2.883-6.441,6.441-6.441h7.269V10.5H19.333c-4.878,0-8.833,3.955-8.833,8.833
		v12.054h7.177V24.119z"/>
	<path fill="#FFFFFF" d="M24.118,56.323c-3.558,0-6.441-2.884-6.441-6.441v-7.269H10.5v12.054c0,4.878,3.955,8.833,8.833,8.833
		h12.054v-7.177H24.118z"/>
	<path fill="#FFFFFF" d="M56.323,49.882c0,3.558-2.885,6.441-6.441,6.441h-7.27V63.5h12.055c4.878,0,8.833-3.955,8.833-8.833V42.613
		h-7.177V49.882z"/>
</g>
<text transform="matrix(1 0 0 1 25.958 47.4277)" fill="#FFFFFF" font-family="'MyriadPro-Regular'" font-size="36.8056">+</text>
</svg>
