<?xml version="1.0" encoding="utf-8"?>
<!-- Generator: Adobe Illustrator 16.0.0, SVG Export Plug-In . SVG Version: 6.00 Build 0)  -->
<!DOCTYPE svg PUBLIC "-//W3C//DTD SVG 1.1//EN" "http://www.w3.org/Graphics/SVG/1.1/DTD/svg11.dtd">
<svg version="1.1" id="Calque_1" xmlns="http://www.w3.org/2000/svg" xmlns:xlink="http://www.w3.org/1999/xlink" x="0px" y="0px"
	 width="72px" height="72px" viewBox="-36 -36 72 72" enable-background="new -36 -36 72 72" xml:space="preserve">
<g>
	<path d="M24-36H7.625v9.75H17.5c4.832,0,8.75,3.918,8.75,8.75v9.875H36V-24C36-30.627,30.627-36,24-36z"/>
	<path d="M-26.25-17.5c0-4.832,3.917-8.75,8.75-8.75h9.875V-36H-24c-6.627,0-12,5.373-12,12v16.375h9.75V-17.5z"/>
	<path d="M-17.5,26.25c-4.833,0-8.75-3.918-8.75-8.75V7.625H-36V24c0,6.627,5.373,12,12,12h16.375v-9.75H-17.5z"/>
	<path d="M26.25,17.5c0,4.832-3.918,8.75-8.75,8.75H7.625V36H24c6.627,0,12-5.373,12-12V7.625h-9.75V17.5z"/>
</g>
<text transform="matrix(1 0 0 1 -15 14.1665)" font-family="'MyriadPro-Regular'" font-size="50">+</text>
</svg>
