<?xml version="1.0" encoding="utf-8"?>
<!-- Generator: Adobe Illustrator 16.0.0, SVG Export Plug-In . SVG Version: 6.00 Build 0)  -->
<!DOCTYPE svg PUBLIC "-//W3C//DTD SVG 1.0//EN" "http://www.w3.org/TR/2001/REC-SVG-20010904/DTD/svg10.dtd">
<svg version="1.0" id="Calque_1" xmlns="http://www.w3.org/2000/svg" xmlns:xlink="http://www.w3.org/1999/xlink" x="0px" y="0px"
	 width="72px" height="72px" viewBox="0 0 72 72" enable-background="new 0 0 72 72" xml:space="preserve">
<path fill="none" d="M8.5,9h54v54h-54V9z"/>
<path fill="#FFFFFF" d="M17.5,22.5H13V54c0,2.476,2.025,4.5,4.5,4.5H49V54H17.5V22.5z M53.5,13.5h-27c-2.475,0-4.5,2.025-4.5,4.5v27
	c0,2.476,2.025,4.5,4.5,4.5h27c2.476,0,4.5-2.024,4.5-4.5V18C58,15.525,55.976,13.5,53.5,13.5z M51.25,33.75h-9v9h-4.5v-9h-9v-4.5h9
	v-9h4.5v9h9V33.75z"/>
</svg>
