<?xml version="1.0" encoding="utf-8"?>
<!-- Generator: Adobe Illustrator 16.0.0, SVG Export Plug-In . SVG Version: 6.00 Build 0)  -->
<!DOCTYPE svg PUBLIC "-//W3C//DTD SVG 1.0//EN" "http://www.w3.org/TR/2001/REC-SVG-20010904/DTD/svg10.dtd">
<svg version="1.0" id="Calque_1" xmlns="http://www.w3.org/2000/svg" xmlns:xlink="http://www.w3.org/1999/xlink" x="0px" y="0px"
	 width="72px" height="72px" viewBox="0 0 72 72" enable-background="new 0 0 72 72" xml:space="preserve">
<path fill="#FFFFFF" d="M27,35.25c-2.07,0-3.75,1.679-3.75,3.75c0,2.069,1.68,3.75,3.75,3.75c2.069,0,3.75-1.681,3.75-3.75
	C30.75,36.929,29.069,35.25,27,35.25z M45,35.25c-2.07,0-3.751,1.679-3.751,3.75c0,2.069,1.681,3.75,3.751,3.75
	c2.071,0,3.749-1.681,3.749-3.75C48.749,36.929,47.071,35.25,45,35.25z M36,6C19.44,6,6,19.44,6,36c0,16.561,13.44,30,30,30
	c16.561,0,29.999-13.439,29.999-30C65.999,19.44,52.561,6,36,6z M36,60c-13.23,0-24-10.771-24-24c0-0.87,0.06-1.741,0.15-2.58
	c7.08-3.151,12.69-8.94,15.63-16.111C33.21,24.99,42.149,30,52.259,30c2.341,0,4.591-0.27,6.75-0.779C59.64,31.35,60,33.63,60,36
	C60,49.229,49.229,60,36,60z"/>
<path fill="none" d="M0,0h72v72H0V0z"/>
</svg>
