<?xml version="1.0" encoding="utf-8"?>
<!-- Generator: Adobe Illustrator 16.0.0, SVG Export Plug-In . SVG Version: 6.00 Build 0)  -->
<!DOCTYPE svg PUBLIC "-//W3C//DTD SVG 1.1//EN" "http://www.w3.org/Graphics/SVG/1.1/DTD/svg11.dtd">
<svg version="1.1" id="Calque_1" xmlns="http://www.w3.org/2000/svg" xmlns:xlink="http://www.w3.org/1999/xlink" x="0px" y="0px"
	 width="72px" height="72px" viewBox="-24 -24 72 72" enable-background="new -24 -24 72 72" xml:space="preserve">
<circle fill="#FFFFFF" cx="12" cy="12" r="9.6"/>
<path fill="#FFFFFF" d="M3-18l-5.49,6H-12c-3.3,0-6,2.7-6,6v36c0,3.301,2.7,6,6,6h48c3.301,0,6-2.699,6-6V-6c0-3.3-2.699-6-6-6
	h-9.51L21-18H3z M12,27C3.72,27-3,20.279-3,12C-3,3.72,3.72-3,12-3c8.279,0,15,6.72,15,15C27,20.279,20.279,27,12,27z"/>
<path fill="none" d="M-24-24h72v72h-72V-24z"/>
</svg>
