<?xml version="1.0" encoding="utf-8"?>
<!-- Generator: Adobe Illustrator 16.0.0, SVG Export Plug-In . SVG Version: 6.00 Build 0)  -->
<!DOCTYPE svg PUBLIC "-//W3C//DTD SVG 1.0//EN" "http://www.w3.org/TR/2001/REC-SVG-20010904/DTD/svg10.dtd">
<svg version="1.0" id="Calque_1" xmlns="http://www.w3.org/2000/svg" xmlns:xlink="http://www.w3.org/1999/xlink" x="0px" y="0px"
	 width="72px" height="72px" viewBox="0 0 72 72" enable-background="new 0 0 72 72" xml:space="preserve">
<path fill-rule="evenodd" clip-rule="evenodd" fill="none" d="M46.09,10.018c0.35,0.06,0.703,0.102,1.049,0.181
	c2.47,0.558,4.439,2.645,4.869,5.148c0.597,3.482-1.555,6.702-5.009,7.482c-0.86,0.194-1.729,0.194-2.598,0.031
	c-0.034-0.007-0.069-0.009-0.116-0.016c-0.763,1.907-1.524,3.812-2.28,5.701c4.003,2.384,5.999,5.842,5.768,10.568
	c1.573,0.327,3.188,0.664,4.807,1.002c0.78-1.861,2.073-3.186,3.986-3.847c1.431-0.493,2.871-0.457,4.288,0.073
	c2.97,1.11,4.611,4.11,4.143,7.074c-0.506,3.186-3.245,5.49-6.427,5.471c-1.813-0.012-3.369-0.678-4.63-1.979
	c-1.262-1.303-1.843-2.888-1.828-4.7c-1.624-0.315-3.232-0.628-4.85-0.942c-0.823,2.507-2.314,4.49-4.524,5.94
	c0.131,0.261,0.26,0.52,0.389,0.778c0.899,1.799,1.8,3.596,2.693,5.396c0.066,0.134,0.126,0.163,0.27,0.116
	c2.8-0.913,5.912,0.472,7.335,2.982c2.117,3.737,0.099,8.463-4.06,9.494c-3.601,0.893-7.241-1.396-7.915-5.045
	c-0.479-2.595,0.378-4.739,2.432-6.399c0.089-0.072,0.135-0.118,0.072-0.241c-1.025-2.018-2.045-4.038-3.066-6.057
	c-0.011-0.021-0.023-0.041-0.035-0.059c-4.376,1.521-8.203,0.593-11.568-2.571c-2.745,2.187-5.508,4.388-8.259,6.579
	c0.168,0.39,0.354,0.755,0.485,1.139c0.738,2.164,0.38,4.167-0.972,5.983c-0.949,1.276-2.231,2.098-3.793,2.396
	c-2.524,0.485-4.656-0.264-6.335-2.214c-0.87-1.011-1.34-2.21-1.458-3.543c-0.002-0.034-0.019-0.066-0.028-0.1
	c0-0.31,0-0.617,0-0.927c0.026-0.192,0.047-0.387,0.081-0.578c0.342-1.913,1.302-3.441,2.966-4.446
	c2.297-1.388,4.626-1.358,6.921,0.054c0.296,0.183,0.563,0.41,0.848,0.62c2.734-2.197,5.473-4.396,8.183-6.573
	c-2.537-4.425-2.293-8.656,0.728-12.714c-3.157-3.157-6.322-6.322-9.485-9.485c-0.267,0.155-0.539,0.34-0.83,0.48
	c-2.125,1.017-4.231,0.963-6.261-0.23c-1.56-0.917-2.547-2.297-2.971-4.064c-0.079-0.332-0.12-0.674-0.179-1.013
	c0-0.308,0-0.617,0-0.926c0.011-0.046,0.023-0.09,0.032-0.136c0.073-0.401,0.106-0.815,0.228-1.201
	c0.743-2.362,2.319-3.868,4.715-4.504c0.342-0.09,0.697-0.123,1.048-0.182c0.309,0,0.618,0,0.926,0
	c0.046,0.011,0.09,0.024,0.136,0.032c0.351,0.062,0.707,0.096,1.049,0.186c4.18,1.1,6.127,5.936,3.882,9.625
	c-0.085,0.141-0.175,0.278-0.249,0.396c3.178,3.179,6.344,6.343,9.506,9.506c2.916-2.27,6.152-3.05,9.761-2.006
	c0.013-0.012,0.025-0.019,0.029-0.028c0.743-1.857,1.483-3.715,2.23-5.571c0.045-0.112,0.005-0.154-0.081-0.21
	c-2.318-1.516-3.455-4.223-2.803-6.892c0.629-2.568,2.276-4.188,4.838-4.861c0.324-0.086,0.662-0.118,0.994-0.176
	C45.473,10.018,45.781,10.018,46.09,10.018z"/>
</svg>
