<?xml version="1.0" encoding="utf-8"?>
<!-- Generator: Adobe Illustrator 16.0.0, SVG Export Plug-In . SVG Version: 6.00 Build 0)  -->
<!DOCTYPE svg PUBLIC "-//W3C//DTD SVG 1.0//EN" "http://www.w3.org/TR/2001/REC-SVG-20010904/DTD/svg10.dtd">
<svg version="1.0" id="Calque_1" xmlns="http://www.w3.org/2000/svg" xmlns:xlink="http://www.w3.org/1999/xlink" x="0px" y="0px"
	 width="72px" height="72px" viewBox="0 0 72 72" enable-background="new 0 0 72 72" xml:space="preserve">
<g>
	<path fill="#FFFFFF" d="M55.904,37.333c-0.031,0.014-0.062,0.028-0.093,0.041c0,9.415,0,18.829,0,28.262
		c-14.439,0-28.813,0-43.249,0c0-1.775,0-3.529,0-5.299c-0.73,0-1.395,0-2.091,0c0,0.76-0.012,1.499,0.002,2.237
		c0.022,1.076,0.038,2.153,0.104,3.226c0.054,0.906,0.949,1.875,1.894,1.874c0.456,0,0.916,0.039,1.375,0.057
		c0.526,0.021,1.051,0.043,1.576,0.063c12.339,0,24.681,0,37.022,0c0.121-0.014,0.241-0.033,0.363-0.038
		c1.086-0.033,2.175-0.048,3.261-0.098c0.813-0.04,1.65-0.806,1.695-1.606c0.076-1.377,0.119-2.756,0.122-4.137
		c0.014-7.706,0.012-15.409,0.016-23.115c0-0.11,0-0.224,0-0.369C57.115,38.284,56.443,37.929,55.904,37.333z"/>
	<path fill="#FFFFFF" d="M12.582,6.272c14.431,0,28.795,0,43.239,0c0,6.155,0,12.289,0,18.423c0.042,0.017,0.085,0.032,0.127,0.05
		c0.57-0.587,1.132-1.179,1.714-1.754c0.172-0.169,0.244-0.339,0.244-0.584c-0.01-4.239-0.004-8.48-0.014-12.72
		c-0.003-1.166-0.03-2.333-0.073-3.499C57.78,5.11,57.001,4.31,55.935,4.24c-0.693-0.042-1.389-0.045-2.085-0.071
		c-0.445-0.015-0.892-0.035-1.339-0.054c-12.385,0-24.771,0-37.156,0c-0.111,0.014-0.22,0.034-0.33,0.038
		c-0.853,0.028-1.705,0.053-2.557,0.082c-0.746,0.027-1.244,0.44-1.617,1.048c-0.295,0.479-0.332,1.018-0.339,1.558
		c-0.021,1.469-0.026,2.938-0.04,4.407c0,0.107,0,0.215,0,0.315c0.717,0,1.383,0,2.11,0C12.582,9.782,12.582,8.026,12.582,6.272z"/>
	<path fill="#FFFFFF" d="M4.832,44.588c0.402,0.026,0.805,0.093,1.207,0.093c3.195,0.01,6.392,0.017,9.589,0
		c0.545-0.001,1.1-0.066,1.631-0.184c0.581-0.129,0.896-0.679,0.848-1.32c-0.052-0.693-0.388-1.077-1.032-1.163
		c-0.255-0.035-0.513-0.069-0.769-0.069c-3.69-0.025-7.38-0.035-11.07-0.074c-0.471-0.007-0.838,0.146-1.133,0.461
		c-0.197,0.211-0.309,0.503-0.461,0.759c0,0.112,0,0.223,0,0.337c0.023,0.062,0.049,0.123,0.065,0.186
		C3.856,44.199,4.208,44.546,4.832,44.588z"/>
	<path fill="#FFFFFF" d="M5.148,30.028c2.726,0,5.448,0.003,8.174-0.006c1.087-0.004,2.174-0.033,3.263-0.063
		c0.38-0.01,0.761-0.047,1.072-0.315c0.422-0.362,0.577-0.938,0.383-1.467c-0.21-0.566-0.68-0.916-1.235-0.919
		c-2.523-0.012-5.045-0.037-7.567-0.039c-1.381-0.001-2.759,0.033-4.138,0.057c-0.578,0.007-1.056,0.205-1.306,0.768
		c-0.071,0.16-0.104,0.337-0.152,0.505c0,0.047,0,0.092,0,0.136c0.021,0.064,0.048,0.125,0.063,0.187
		C3.858,29.549,4.454,30.028,5.148,30.028z"/>
	<path fill="#FFFFFF" d="M17.199,59.173c0.506-0.032,0.907-0.588,0.924-1.163c0.019-0.656-0.286-1.151-0.83-1.249
		c-0.462-0.081-0.933-0.134-1.402-0.137c-3.553-0.025-7.106-0.014-10.659-0.068c-0.66-0.01-1.041,0.27-1.385,0.732
		c-0.08,0.104-0.137,0.227-0.205,0.341c0,0.181,0,0.359,0,0.539c0.038,0.078,0.078,0.154,0.111,0.234
		c0.203,0.479,0.5,0.81,1.079,0.795c0.402-0.01,0.808,0.043,1.209,0.045c2.711,0.017,5.426,0.038,8.138,0.035
		C15.188,59.275,16.194,59.236,17.199,59.173z"/>
	<path fill="#FFFFFF" d="M5.194,15.359c2.982-0.052,5.964-0.017,8.947-0.037c0.995-0.009,1.991-0.067,2.986-0.137
		c0.738-0.048,0.973-0.644,0.995-1.286c0.017-0.479-0.451-1.212-1.055-1.192c-0.247,0.009-0.492-0.042-0.737-0.044
		c-2.086-0.015-4.171-0.042-6.256-0.03c-1.782,0.006-3.563,0.061-5.346,0.091c-0.479,0.008-0.762,0.273-0.95,0.678
		c-0.053,0.11-0.092,0.227-0.138,0.339c0,0.181,0,0.359,0,0.539c0.038,0.067,0.07,0.139,0.114,0.2
		C4.11,14.975,4.456,15.372,5.194,15.359z"/>
	<path fill="#FFFFFF" d="M69.563,19.441c-0.396-1.497-1.206-2.206-2.716-2.376c-0.804-0.091-1.443,0.271-2.07,0.707
		c0.046,0.082,0.061,0.128,0.09,0.157c1.251,1.285,2.503,2.566,3.756,3.851c0.166,0.169,0.315,0.12,0.4-0.063
		c0.207-0.454,0.393-0.92,0.587-1.38c0-0.268,0-0.537,0-0.806C69.593,19.499,69.572,19.472,69.563,19.441z"/>
	<path fill="#FFFFFF" d="M64.255,18.925c-0.083-0.087-0.183-0.154-0.294-0.249c-5.735,5.782-11.447,11.544-17.113,17.255
		c1.294,1.294,2.653,2.655,4.106,4.109c5.209-5.266,10.444-10.557,15.701-15.871c0.42,0.526,0.415,0.979,0.054,1.38
		c-0.111,0.124-0.226,0.249-0.343,0.368c-1.997,2.033-4.001,4.059-5.991,6.096c-1.075,1.097-2.14,2.205-3.192,3.324
		c-0.364,0.388-0.319,0.959,0.049,1.336c0.373,0.383,0.809,0.42,1.243,0.019c1.054-0.972,2.108-1.949,3.118-2.966
		c2.306-2.324,4.599-4.661,6.873-7.021c0.814-0.844,0.81-2.544,0.01-3.394C67.088,21.832,65.664,20.384,64.255,18.925z"/>
	<path fill="#FFFFFF" d="M32.562,50.104c1.342,1.342,2.709,2.707,4.039,4.037c4.462-4.457,8.958-8.949,13.431-13.415
		c-1.347-1.346-2.706-2.707-4.045-4.046C41.505,41.159,37.007,45.66,32.562,50.104z"/>
	<path fill="#FFFFFF" d="M50.322,13.271c-4.52,0-9.042,0-13.563,0c-4.508,0-9.019,0.004-13.529-0.011
		c-0.349-0.002-0.506,0.142-0.623,0.414c-0.21,0.496,0.07,0.938,0.605,0.945c0.831,0.014,1.659,0.033,2.49,0.033
		c7.134,0.011,14.271,0.023,21.405,0.021c1.108,0,2.22-0.05,3.327-0.109c0.395-0.02,0.641-0.318,0.609-0.624
		C51.004,13.577,50.675,13.271,50.322,13.271z"/>
	<path fill="#FFFFFF" d="M50.354,20.612c-4.531,0-9.064,0-13.596,0c-4.521,0-9.042,0-13.563,0.001c-0.119,0-0.307-0.02-0.348,0.044
		c-0.137,0.218-0.313,0.467-0.309,0.701c0.005,0.312,0.354,0.537,0.669,0.542c0.729,0.014,1.457,0.029,2.188,0.029
		c7.157-0.014,14.313-0.028,21.469-0.045c1.201-0.004,2.401-0.027,3.602-0.037c0.264-0.003,0.46-0.092,0.54-0.359
		C51.118,21.105,50.75,20.612,50.354,20.612z"/>
	<path fill="#FFFFFF" d="M51.047,28.563c0.019-0.292-0.181-0.464-0.593-0.487c-0.492-0.028-0.985-0.062-1.478-0.062
		c-4.073-0.006-8.146-0.002-12.218-0.002c0-0.02,0-0.038,0-0.057c-4.521,0-9.042,0-13.563,0.002c-0.119,0-0.306-0.017-0.346,0.047
		c-0.139,0.215-0.328,0.473-0.31,0.699c0.033,0.386,0.306,0.543,0.7,0.543c6.663,0,13.326,0,19.99,0c2.379,0,4.757,0,7.136-0.003
		C50.686,29.244,51.026,28.903,51.047,28.563z"/>
	<path fill="#FFFFFF" d="M23.106,36.605c6.9,0,13.799,0,20.698-0.004c0.105,0,0.248-0.01,0.313-0.073
		c0.388-0.383,0.759-0.781,1.137-1.174c-0.018-0.042-0.034-0.083-0.05-0.123c-0.348,0-0.694,0-1.042,0
		c-5.362-0.008-10.724-0.02-16.086-0.02c-1.672,0-3.342,0.03-5.014,0.057c-0.354,0.005-0.523,0.239-0.514,0.64
		C22.561,36.303,22.796,36.605,23.106,36.605z"/>
	<path fill="#FFFFFF" d="M29.415,58.114c2.003-0.997,4.01-1.991,6.015-2.988c0.104-0.052,0.195-0.128,0.36-0.238
		c-1.39-1.321-2.736-2.6-4.092-3.886c-0.201,0.392-0.446,0.868-0.687,1.347c-0.818,1.634-1.634,3.266-2.449,4.897
		c-0.151,0.301-0.15,0.568,0.116,0.821C28.923,58.298,29.156,58.242,29.415,58.114z"/>
	<path fill="#FFFFFF" d="M32.356,58.507c6,0,11.999,0,18,0c0.327,0,0.682-0.362,0.692-0.701c0.008-0.279-0.194-0.46-0.604-0.492
		c-0.48-0.037-0.963-0.062-1.445-0.063c-4.844-0.007-9.688-0.007-14.533-0.009c-0.089,0-0.188,0-0.262,0.04
		c-0.718,0.383-1.431,0.771-2.145,1.159c0.004,0.023,0.009,0.044,0.012,0.065C32.166,58.507,32.262,58.507,32.356,58.507z"/>
	<path fill="#FFFFFF" d="M12.512,40.969c0-3.358,0-6.685,0-10.02c-0.682,0-1.347,0-2.017,0c0,3.354,0,6.676,0,10.02
		C11.173,40.969,11.827,40.969,12.512,40.969z"/>
	<path fill="#FFFFFF" d="M12.512,26.267c0-3.314,0-6.592,0-9.88c-0.682,0-1.347,0-2.02,0c0,3.302,0,6.582,0,9.88
		C11.17,26.267,11.827,26.267,12.512,26.267z"/>
	<path fill="#FFFFFF" d="M10.492,55.532c0.678,0,1.335,0,2.02,0c0-3.313,0-6.594,0-9.881c-0.685,0-1.347,0-2.02,0
		C10.492,48.959,10.492,52.238,10.492,55.532z"/>
	<path fill="#FFFFFF" d="M22.589,43.495c0.11,0.314,0.346,0.398,0.659,0.399c4.407,0.015,8.815,0.038,13.223,0.054
		c0.111,0,0.253-0.033,0.332-0.104c0.438-0.384,0.856-0.785,1.284-1.179c-0.029-0.043-0.059-0.089-0.089-0.13
		c-0.121,0-0.242,0-0.363,0c-1.459,0-2.916,0-4.374,0c-3.366,0-6.729,0-10.094,0.002c-0.118,0-0.262,0-0.348,0.064
		C22.583,42.771,22.487,43.209,22.589,43.495z"/>
	<path fill="#FFFFFF" d="M47.062,51.161c1.097-0.007,2.196-0.033,3.295-0.066c0.445-0.012,0.682-0.201,0.692-0.489
		c0.01-0.321-0.279-0.62-0.662-0.67c-0.166-0.022-0.334-0.041-0.502-0.042c-2.265-0.006-4.532-0.01-6.798-0.01
		c-0.103,0-0.229,0.027-0.303,0.091c-0.399,0.343-0.785,0.699-1.175,1.049c0.036,0.05,0.07,0.095,0.105,0.141
		c0.065,0,0.132,0,0.195,0C43.628,51.164,45.345,51.171,47.062,51.161z"/>
	<path fill="#FFFFFF" d="M30.119,51.033c0.198-0.359,0.376-0.731,0.587-1.153c-1.498,0-2.922-0.01-4.344,0.004
		c-1.086,0.009-2.174,0.035-3.26,0.078c-0.149,0.004-0.366,0.104-0.433,0.225c-0.244,0.447-0.041,0.813,0.459,0.897
		c0.055,0.01,0.112,0.016,0.168,0.016c2.195,0.022,4.392,0.045,6.588,0.06C29.965,51.161,30.082,51.1,30.119,51.033z"/>
	<path fill="#FFFFFF" d="M23.13,58.507c1.257,0,2.511,0,3.766,0c0.099,0,0.196-0.01,0.302-0.013
		c-0.051-0.32-0.117-0.615-0.144-0.913c-0.021-0.226-0.131-0.329-0.338-0.329c-1.198,0-2.396,0.004-3.594,0.01
		c-0.044,0-0.089,0.014-0.132,0.025c-0.24,0.06-0.513,0.398-0.49,0.61C22.531,58.188,22.858,58.507,23.13,58.507z"/>
	<path fill="#FFFFFF" d="M50.758,42.68c-0.206-0.204-0.419-0.148-0.598,0.008c-0.436,0.381-0.854,0.78-1.28,1.173
		c0.019,0.035,0.037,0.073,0.055,0.11c0.476-0.022,0.958-0.01,1.425-0.085c0.214-0.032,0.438-0.207,0.592-0.378
		C51.15,43.293,51.042,42.959,50.758,42.68z"/>
</g>
</svg>
