<?xml version="1.0" encoding="utf-8"?>
<!-- Generator: Adobe Illustrator 16.0.0, SVG Export Plug-In . SVG Version: 6.00 Build 0)  -->
<!DOCTYPE svg PUBLIC "-//W3C//DTD SVG 1.0//EN" "http://www.w3.org/TR/2001/REC-SVG-20010904/DTD/svg10.dtd">
<svg version="1.0" id="Calque_1" xmlns="http://www.w3.org/2000/svg" xmlns:xlink="http://www.w3.org/1999/xlink" x="0px" y="0px"
	 width="72px" height="72px" viewBox="0 0 72 72" enable-background="new 0 0 72 72" xml:space="preserve">
<circle fill="#FFFFFF" cx="36" cy="39" r="9.6"/>
<path fill="#FFFFFF" d="M27,9l-5.49,6H12c-3.3,0-6,2.7-6,6v36c0,3.301,2.7,6,6,6h48c3.301,0,6-2.699,6-6V21c0-3.3-2.699-6-6-6h-9.51
	L45,9H27z M36,54c-8.28,0-15-6.721-15-15c0-8.28,6.72-15,15-15c8.279,0,15,6.72,15,15C51,47.279,44.279,54,36,54z"/>
<path fill="none" d="M0,0h72v72H0V0z"/>
</svg>
