<?xml version="1.0" encoding="utf-8"?>
<!-- Generator: Adobe Illustrator 16.0.0, SVG Export Plug-In . SVG Version: 6.00 Build 0)  -->
<!DOCTYPE svg PUBLIC "-//W3C//DTD SVG 1.0//EN" "http://www.w3.org/TR/2001/REC-SVG-20010904/DTD/svg10.dtd">
<svg version="1.0" id="Calque_1" xmlns="http://www.w3.org/2000/svg" xmlns:xlink="http://www.w3.org/1999/xlink" x="0px" y="0px"
	 width="72px" height="72px" viewBox="0 0 72 72" enable-background="new 0 0 72 72" xml:space="preserve">
<path fill-rule="evenodd" clip-rule="evenodd" fill="#FFFFFF" d="M48.178,45.741c0.957,3.183,0.407,4.965-2.13,7.031
	c0.721,2.099,0.541,4.099-1.034,5.837c-0.921,1.018-2.067,1.7-3.433,1.705c-5.85,0.031-11.738,0.396-17.542-0.124
	c-7.45-0.664-12.627-4.961-14.915-12.098c-2.274-7.092-0.403-13.346,5.022-18.464c1.876-1.772,4.132-2.92,6.591-3.728
	c2.182-0.717,3.964-1.904,4.737-4.298c0.571-1.771,1.382-3.469,2.137-5.178c1.291-2.912,4.343-4.176,7.101-2.975
	c2.8,1.22,3.97,4.216,2.767,7.189c-1.012,2.505-2.075,4.989-3.112,7.484c-0.087,0.212-0.139,0.436-0.266,0.838
	c0.544,0,0.963,0,1.382,0c8.201,0,16.4,0,24.601,0c2.248,0,3.917,1.033,4.909,3.007c0.978,1.942,0.763,3.877-0.537,5.624
	c-1.125,1.511-2.71,2.159-4.568,2.166c-2.707,0.008-5.413,0-8.12,0.004c-0.388,0-0.777,0.032-1.273,0.055
	C50.884,42.28,50.229,44.294,48.178,45.741z M51.275,35.811c2.029,0,4.061,0.001,6.092,0c0.914-0.004,1.831,0.011,2.745-0.029
	c0.932-0.04,1.525-0.532,1.483-1.498c-0.042-0.948-0.651-1.4-1.587-1.418c-0.319-0.004-0.638,0-0.956,0
	c-9.037,0-18.074,0-27.111-0.002c-2.487,0-3.252-1.123-2.318-3.398c1.389-3.382,2.771-6.767,4.17-10.146
	c0.313-0.757,0.424-1.471-0.295-2.051c-0.832-0.668-1.846-0.308-2.348,0.875c-1.287,3.036-2.598,6.065-3.786,9.141
	c-0.486,1.26-1.232,1.736-2.554,1.856c-8.892,0.802-14.554,9.17-12.023,17.694c1.697,5.721,7.084,9.59,13.492,9.641
	c4.658,0.035,9.315,0.008,13.974,0.004c0.316,0,0.641-0.007,0.95-0.067c0.795-0.151,1.321-0.62,1.294-1.461
	c-0.025-0.882-0.556-1.396-1.438-1.445c-0.793-0.048-1.593-0.008-2.388-0.022c-1.563-0.025-2.478-0.784-2.43-2.002
	c0.045-1.165,0.966-1.888,2.43-1.895c1.435-0.008,2.866,0.02,4.299-0.013c1.1-0.022,1.852-0.67,1.761-1.527
	c-0.105-0.995-0.743-1.433-1.731-1.41c-0.715,0.018-1.433,0.018-2.149,0c-1.511-0.042-2.359-0.747-2.368-1.948
	c-0.011-1.246,0.881-1.985,2.439-1.998c1.432-0.015,2.866,0.018,4.297-0.029c0.868-0.027,1.451-0.517,1.452-1.416
	c0-0.943-0.553-1.46-1.509-1.478c-0.915-0.019-1.834,0.041-2.746-0.022c-1.487-0.104-2.375-1.401-1.852-2.672
	c0.404-0.979,1.245-1.265,2.231-1.263C45.622,35.813,48.448,35.811,51.275,35.811z"/>
</svg>
